<?xml version="1.0" encoding="UTF-8" standalone="no"?>
<!DOCTYPE svg PUBLIC "-//W3C//DTD SVG 1.1//EN" "http://www.w3.org/Graphics/SVG/1.1/DTD/svg11.dtd">
<svg width="100%" height="100%" viewBox="0 0 821 216" version="1.1" xmlns="http://www.w3.org/2000/svg" xmlns:xlink="http://www.w3.org/1999/xlink" xml:space="preserve" xmlns:serif="http://www.serif.com/" style="fill-rule:evenodd;clip-rule:evenodd;stroke-linejoin:round;stroke-miterlimit:2;">
    <path d="M277.768,215.113C267.997,214.651 259.187,212.636 251.698,206.68C247.359,203.23 247.348,201.211 251.508,197.561C252.76,196.463 254.117,195.472 255.278,194.287C257.968,191.54 260.626,191.596 263.702,193.765C268.947,197.464 274.871,198.954 281.202,197.782C292.488,195.694 297.796,187.867 296.507,175.398C296.055,175.6 295.55,175.676 295.282,175.968C278.627,194.08 251.365,183.277 244.362,163.432C239.207,148.824 240.112,134.707 249.512,121.74C258.256,109.679 280.506,103.051 296.534,116.994C300.354,110.887 307.527,107.985 314.314,110.586C315.83,111.167 317.103,114.473 317.126,116.54C317.339,135.53 317.288,154.525 317.222,173.518C317.208,177.673 317.161,181.877 316.556,185.973C314.349,200.927 302.763,212.192 287.675,214.273C284.547,214.704 281.378,214.841 277.768,215.113ZM280.061,128.27C279.062,128.278 278.048,128.177 277.066,128.312C269.79,129.306 264.818,133.509 262.236,140.129C259.354,147.522 260.509,154.698 265.911,160.596C270.682,165.805 276.869,167.205 283.707,165.255C292.043,162.879 297.28,155.103 296.863,145.794C296.443,136.387 290.944,130.349 280.061,128.27Z" style="fill-rule:nonzero;"/>
    <path d="M103.319,127.603C100.738,129.338 98.288,132.376 96.293,132.102C92.337,131.559 88.459,129.477 84.948,127.366C84.105,126.86 84.086,123.282 84.953,121.923C88.783,115.918 94.626,112.277 101.41,110.598C111.946,107.991 122.448,108.267 132.758,112.157C142.133,115.694 147.941,122.744 148.422,132.253C149.284,149.314 148.665,166.449 148.665,183.835L129.194,183.835C129.029,182.251 128.863,180.665 128.633,178.477C118.432,186.408 107.142,186.423 95.598,183.39C83.033,180.089 76.903,168.916 80.729,156.836C82.882,150.04 87.798,145.65 94.421,144.289C103.805,142.362 113.413,141.511 122.936,140.291C124.722,140.062 126.563,140.258 128.349,140.258C129.21,131.221 123.803,125.097 114.723,125.233C111.024,125.289 107.344,126.644 103.319,127.603ZM99.53,163.476C100.797,169.602 105.639,170.172 110.57,170.535C120.937,171.3 128.506,165.773 128.838,157.399C128.974,153.949 127.414,151.432 124.195,151.649C117.797,152.081 111.374,152.979 105.12,154.389C101.272,155.257 99.155,158.397 99.53,163.476Z" style="fill-rule:nonzero;"/>
    <path d="M487.54,178.987L487.54,101.378C487.174,101.29 486.807,101.202 486.441,101.114C485.817,102.132 485.109,103.108 484.583,104.175C474.294,125.028 464.01,145.884 453.776,166.765C452.631,169.102 451.509,171.713 448.437,170.68C446.401,169.995 443.965,168.535 443.064,166.742C432.846,146.41 422.89,125.947 412.862,105.52C412.153,104.076 411.419,102.644 409.542,101.289C409.449,102.946 409.275,104.604 409.274,106.261C409.256,130.415 409.218,154.568 409.309,178.721C409.322,182.377 408.428,184.356 404.28,184.197C400.871,184.066 399.622,182.815 399.657,179.375C399.794,166.217 399.712,153.057 399.712,139.897C399.712,121.907 399.644,103.916 399.812,85.928C399.83,84.002 401.088,80.531 402.013,80.447C405.441,80.136 409.373,78.454 411.82,83.445C422.572,105.376 433.656,127.144 444.641,148.961C445.512,150.69 446.552,152.335 448.101,155.047C449.706,152.528 450.935,150.916 451.836,149.138C462.721,127.652 473.557,106.142 484.408,84.638C486.553,80.386 490.602,78.463 494.877,80.359C496.039,80.874 496.817,83.514 496.826,85.183C496.949,108.67 496.91,132.157 496.91,155.644C496.91,163.473 496.808,171.304 496.959,179.13C497.021,182.32 496.32,184.174 492.648,184.179C489.263,184.183 487.054,183.408 487.54,178.987Z" style="fill-rule:nonzero;"/>
    <path d="M202.65,140.262C205.271,140.261 207.413,140.261 209.615,140.261C209.848,133.781 207.563,128.883 201.898,126.546C195.218,123.79 187.945,123.804 182.676,128.925C178.798,132.694 176.079,132.251 171.807,130.548C162.985,127.031 160.408,125.869 169.951,117.185C179.965,108.074 192.512,107.66 204.862,109.825C222.659,112.944 229.573,121.604 229.852,139.703C230.078,154.328 229.898,168.959 229.898,183.848L209.953,183.848C209.835,182.18 209.721,180.561 209.564,178.338C199.386,186.352 188.091,186.438 176.511,183.425C165.31,180.51 159.945,172.805 160.715,161.315C161.332,152.12 166.773,146.366 175.146,144.339C183.966,142.204 193.147,141.559 202.65,140.262ZM205.907,165.938C207.17,162.953 209.201,160.017 209.396,156.964C209.506,155.248 206.503,151.721 205.04,151.794C198.474,152.119 191.877,153.086 185.455,154.543C181.762,155.38 179.887,158.642 180.12,162.592C180.356,166.608 182.823,169.136 186.529,169.882C193.177,171.219 199.757,171.232 205.907,165.938Z" style="fill-rule:nonzero;"/>
    <path d="M59.425,175.974C47.036,186.599 26.422,188.229 12.93,179.872C6.561,175.926 2.616,170.215 0.381,163.111C-0.571,160.086 0.239,158.275 3.051,157.198C5.219,156.368 7.42,155.62 9.611,154.851C17.816,151.973 17.817,151.975 22.581,159.291C25.632,163.977 31.763,165.902 38.132,164.175C43.645,162.68 47.418,157.614 47.506,150.911C47.652,139.757 47.546,128.6 47.548,117.445C47.549,108.954 47.423,100.46 47.589,91.972C47.776,82.442 58.29,76.083 66.686,80.435C67.685,80.953 68.49,82.878 68.484,84.147C68.378,108.44 68.225,132.734 67.87,157.024C67.764,164.273 64.915,170.587 59.425,175.974Z" style="fill-rule:nonzero;"/>
    <path d="M687.164,174.663C687.028,173.322 686.893,172.416 686.59,170.383C678.149,181.481 667.598,186.038 654.82,185.089C645.693,184.412 637.826,180.841 631.531,174.003C618.424,159.764 618.568,133.232 632.053,119.578C639.759,111.775 649.373,108.702 660.219,109.255C670.94,109.801 679.501,114.561 686.919,124.375L686.919,80.365L695.995,80.365C696.087,82.127 696.271,84.038 696.272,85.95C696.29,116.268 696.285,146.586 696.284,176.904C696.284,184.649 696.283,184.649 687.165,183.708C687.165,180.913 687.165,178.005 687.164,174.663ZM642.839,171.829C644.015,172.444 645.17,173.103 646.369,173.669C657.807,179.066 672.473,176.21 680.116,167.112C688.632,156.974 689.281,141.424 681.644,130.45C674.184,119.73 660.516,115.186 648.647,119.542C638.268,123.351 632.498,131.166 631.02,141.757C629.387,153.451 632.221,163.894 642.839,171.829Z" style="fill-rule:nonzero;"/>
    <path d="M763.057,10.585C766.55,7.738 769.825,5.184 772.999,2.512C777.107,-0.947 779.485,-0.915 783.165,3.113C785.628,5.807 788.001,8.604 790.189,11.524C792.524,14.638 792.385,17.433 789.054,20.133C769.577,35.92 750.196,51.825 730.784,67.693C726.598,71.115 724.808,70.922 721.315,66.686C719.096,63.995 716.908,61.275 714.603,58.658C711.667,55.325 712.105,52.504 715.473,49.75C729.871,37.978 744.224,26.151 758.59,14.34C760.001,13.181 761.393,11.998 763.057,10.585Z" style="fill:rgb(129,97,163);fill-rule:nonzero;"/>
    <path d="M801.826,55.364C814.425,50.529 814.098,51.072 818.196,62.826C821.361,71.903 822.866,73.104 811.517,76.977C789.006,84.658 766.549,92.495 744.108,100.377C740.312,101.71 737.966,100.647 736.644,97.032C735.273,93.284 734.113,89.456 732.681,85.732C731.144,81.739 732.463,79.489 736.423,78.135C748.856,73.885 761.237,69.481 773.642,65.148C782.906,61.912 792.177,58.692 801.826,55.364Z" style="fill:rgb(129,97,163);fill-rule:nonzero;"/>
    <path d="M351.581,158.288C351.581,165.109 351.445,171.439 351.627,177.759C351.755,182.195 349.949,184.171 345.474,184.154C329.679,184.091 331.191,185.27 331.185,170.483C331.178,153.504 331.095,136.524 331.259,119.547C331.291,116.238 329.433,111.699 334.695,110.371C341.545,108.641 348.441,111.456 350.569,116.634C351.13,117.999 351.392,119.488 351.8,120.951C355.629,118.105 359.353,115.271 363.162,112.556C364.081,111.9 365.273,111.613 366.357,111.202C375.522,107.728 377.265,108.891 377.266,118.46C377.266,120.291 377.751,122.317 377.121,123.9C376.453,125.579 374.858,127.937 373.438,128.11C356.475,130.168 350.523,138.889 351.574,155.295C351.627,156.124 351.581,156.96 351.581,158.288Z" style="fill-rule:nonzero;"/>
    <path d="M606.58,165.265C606.579,170.594 606.47,175.426 606.614,180.251C606.724,183.926 604.512,184.13 601.738,184.164C598.928,184.198 597.453,183.474 597.486,180.242C597.615,167.421 597.645,154.597 597.508,141.777C597.366,128.34 591.809,120.575 580.762,117.896C565.458,114.184 552.858,123.715 552.624,139.437C552.428,152.589 552.514,165.747 552.626,178.901C552.654,182.223 552.156,184.205 548.09,184.232C544.124,184.259 543.458,182.554 543.478,179.094C543.598,157.781 543.532,136.466 543.552,115.152C543.553,113.701 543.751,112.25 543.851,110.893C552.067,109.377 552.067,109.377 552.915,118.838C553.999,118.163 554.96,117.736 555.711,117.071C566.582,107.441 583.564,106.572 595.444,114.872C604.396,121.127 606.281,130.38 606.536,140.289C606.747,148.443 606.579,156.606 606.58,165.265Z" style="fill-rule:nonzero;"/>
    <path d="M802.085,136.559C798.699,148.083 798.663,148.217 787.467,145.207C770.781,140.72 754.182,135.906 737.476,131.492C733.228,130.37 732.047,128.005 732.93,124.196C733.829,120.315 734.925,116.473 736.09,112.662C737.183,109.083 739.525,107.535 743.349,108.592C761.925,113.726 780.496,118.876 799.102,123.897C803.235,125.013 804.396,127.511 803.526,131.364C803.161,132.984 802.663,134.573 802.085,136.559Z" style="fill:rgb(129,97,163);fill-rule:nonzero;"/>
    <path d="M516.486,183.262C515.998,174.521 515.781,166.05 515.741,157.578C515.676,143.423 515.824,129.267 515.655,115.113C515.612,111.499 516.573,110.115 520.407,110.145C524.149,110.175 524.792,111.763 524.777,115.001C524.678,135.817 524.727,156.634 524.726,177.45C524.725,184.431 524.092,184.916 516.486,183.262Z" style="fill-rule:nonzero;"/>
    <path d="M514.701,98.574C515.564,95.987 515.933,92.845 517.608,91.802C519.125,90.858 522.519,91.561 524.229,92.759C525.468,93.627 526.08,96.743 525.547,98.397C525.026,100.018 522.631,102.182 521.186,102.091C518.991,101.954 516.907,100.073 514.701,98.574Z" style="fill-rule:nonzero;"/>
</svg>
