<?xml version="1.0" encoding="UTF-8" standalone="no"?>
<!DOCTYPE svg PUBLIC "-//W3C//DTD SVG 1.1//EN" "http://www.w3.org/Graphics/SVG/1.1/DTD/svg11.dtd">
<svg width="100%" height="100%" viewBox="0 0 821 216" version="1.1" xmlns="http://www.w3.org/2000/svg" xmlns:xlink="http://www.w3.org/1999/xlink" xml:space="preserve" xmlns:serif="http://www.serif.com/" style="fill-rule:evenodd;clip-rule:evenodd;stroke-linejoin:round;stroke-miterlimit:2;">
    <g transform="matrix(1,0,0,1,-44.917167,23.370351)">
        <path d="M487.54,178.987L487.54,101.378C487.174,101.29 486.807,101.202 486.441,101.114C485.817,102.132 485.109,103.108 484.583,104.175C474.294,125.028 464.01,145.884 453.776,166.765C452.631,169.102 451.509,171.713 448.437,170.68C446.401,169.995 443.965,168.535 443.064,166.742C432.846,146.41 422.89,125.947 412.862,105.52C412.153,104.076 411.419,102.644 409.542,101.289C409.449,102.946 409.275,104.604 409.274,106.261C409.256,130.415 409.218,154.568 409.309,178.721C409.322,182.377 408.428,184.356 404.28,184.197C400.871,184.066 399.622,182.815 399.657,179.375C399.794,166.217 399.712,153.057 399.712,139.897C399.712,121.907 399.644,103.916 399.812,85.928C399.83,84.002 401.088,80.531 402.013,80.447C405.441,80.136 409.373,78.454 411.82,83.445C422.572,105.376 433.656,127.144 444.641,148.961C445.512,150.69 446.552,152.335 448.101,155.047C449.706,152.528 450.935,150.916 451.836,149.138C462.721,127.652 473.557,106.142 484.408,84.638C486.553,80.386 490.602,78.463 494.877,80.359C496.039,80.874 496.817,83.514 496.826,85.183C496.949,108.67 496.91,132.157 496.91,155.644C496.91,163.473 496.808,171.304 496.959,179.13C497.021,182.32 496.32,184.174 492.648,184.179C489.263,184.183 487.054,183.408 487.54,178.987Z" style="fill-rule:nonzero;"/>
    </g>
    <g transform="matrix(1,0,0,1,272.478248,22.384448)">
        <path d="M59.425,175.974C47.036,186.599 26.422,188.229 12.93,179.872C6.561,175.926 2.616,170.215 0.381,163.111C-0.571,160.086 0.239,158.275 3.051,157.198C5.219,156.368 7.42,155.62 9.611,154.851C17.816,151.973 17.817,151.975 22.581,159.291C25.632,163.977 31.763,165.902 38.132,164.175C43.645,162.68 47.418,157.614 47.506,150.911C47.652,139.757 47.546,128.6 47.548,117.445C47.549,108.954 47.423,100.46 47.589,91.972C47.776,82.442 58.29,76.083 66.686,80.435C67.685,80.953 68.49,82.878 68.484,84.147C68.378,108.44 68.225,132.734 67.87,157.024C67.764,164.273 64.915,170.587 59.425,175.974Z" style="fill-rule:nonzero;"/>
    </g>
    <g transform="matrix(1,0,0,1,-271.959125,8.423904)">
        <path d="M763.057,10.585C766.55,7.738 769.825,5.184 772.999,2.512C777.107,-0.947 779.485,-0.915 783.165,3.113C785.628,5.807 788.001,8.604 790.189,11.524C792.524,14.638 792.385,17.433 789.054,20.133C769.577,35.92 750.196,51.825 730.784,67.693C726.598,71.115 724.808,70.922 721.315,66.686C719.096,63.995 716.908,61.275 714.603,58.658C711.667,55.325 712.105,52.504 715.473,49.75C729.871,37.978 744.224,26.151 758.59,14.34C760.001,13.181 761.393,11.998 763.057,10.585Z" style="fill:rgb(129,97,163);fill-rule:nonzero;"/>
    </g>
    <g transform="matrix(1,0,0,1,-271.959125,8.423904)">
        <path d="M801.826,55.364C814.425,50.529 814.098,51.072 818.196,62.826C821.361,71.903 822.866,73.104 811.517,76.977C789.006,84.658 766.549,92.495 744.108,100.377C740.312,101.71 737.966,100.647 736.644,97.032C735.273,93.284 734.113,89.456 732.681,85.732C731.144,81.739 732.463,79.489 736.423,78.135C748.856,73.885 761.237,69.481 773.642,65.148C782.906,61.912 792.177,58.692 801.826,55.364Z" style="fill:rgb(129,97,163);fill-rule:nonzero;"/>
    </g>
    <g transform="matrix(1,0,0,1,-271.959125,8.423904)">
        <path d="M802.085,136.559C798.699,148.083 798.663,148.217 787.467,145.207C770.781,140.72 754.182,135.906 737.476,131.492C733.228,130.37 732.047,128.005 732.93,124.196C733.829,120.315 734.925,116.473 736.09,112.662C737.183,109.083 739.525,107.535 743.349,108.592C761.925,113.726 780.496,118.876 799.102,123.897C803.235,125.013 804.396,127.511 803.526,131.364C803.161,132.984 802.663,134.573 802.085,136.559Z" style="fill:rgb(129,97,163);fill-rule:nonzero;"/>
    </g>
</svg>
